<?xml version="1.0" standalone="yes"?>
<svg xmlns="http://www.w3.org/2000/svg" width="532" height="531">
<path style="fill:#e0d6d9; stroke:none;" d="M0 0L0 531L1 531L1 1L532 1C520.068 -4.00677 498.991 0 486 0L377 0L0 0z"/>
<path style="fill:#020b0e; stroke:none;" d="M1 1L1 531L532 531L532 1L520 1L520 2C531.342 5.85846 531 15.9155 531 26L531 88C531 96.3762 533.132 108.277 529.427 115.999C524.208 126.88 509.449 127.875 502.703 117.985C498.686 112.095 500 103.75 500 97L500 72L500 32L446 32C437.486 32 427.314 33.516 419 31.6057C403.22 27.9802 404.626 8.43762 417 2L417 1L115 1L115 2C129.278 6.85712 129.281 27.7524 114 31.4668C105.68 33.4892 95.5329 32 87 32L33 32L33 72L33 97C33 103.747 34.3166 112.099 30.2971 117.985C23.6247 127.755 8.72173 126.733 3.57253 115.999C-0.131628 108.277 2 96.376 2 88L2 26C2 16.0057 1.80385 5.80872 13 2L1 1z"/>
<path style="fill:#e82156; stroke:none;" d="M33 32L73 32L97 32C103.681 32 112.003 33.3468 117.985 29.7716C128.223 23.6532 128.223 9.3468 117.985 3.22839C110.939 -0.982483 99.9004 1 92 1L33 1C24.5786 1 13.9002 -0.910339 7.18827 5.34027C0.180708 11.8662 2 22.3549 2 31L2 91C2 98.9003 0.0175524 109.939 4.22839 116.985C10.3468 127.223 24.6532 127.223 30.7716 116.985C34.3468 111.003 33 102.681 33 96L33 72L33 32z"/>
<path style="fill:#9fc0cb; stroke:none;" d="M418 1L419 2L418 1z"/>
<path style="fill:#e82156; stroke:none;" d="M500 32L500 72L500 96C500 102.621 498.646 111.023 502.09 116.996C508.029 127.298 522.971 127.298 528.911 116.996C532.98 109.937 531 98.8559 531 91L531 31C531 22.4115 532.865 11.7023 525.892 5.22455C519.244 -0.951294 508.331 1 500 1L441 1C433.144 1 422.063 -0.979858 415.004 3.08948C404.702 9.0285 404.702 23.9715 415.004 29.9105C420.977 33.3541 429.379 32 436 32L460 32L500 32z"/>
<path style="fill:#e0d6d9; stroke:none;" d="M10 2L11 3L10 2M117 2L118 3L117 2M415 2L416 3L415 2M522 2L523 3L522 2M8.66667 3.33331L9.33333 3.66669L8.66667 3.33331M118.667 3.33331L119.333 3.66669L118.667 3.33331M413 3L414 4L413 3M524 3L525 4L524 3M7 4L8 5L7 4M120 4L121 5L120 4M412 4L413 5L412 4M525 4L526 5L525 4M6 5L7 6L6 5M121 5L122 6L121 5z"/>
<path style="fill:#9fc0cb; stroke:none;" d="M411 5L412 6L411 5M526 5L527 6L526 5z"/>
<path style="fill:#e0d6d9; stroke:none;" d="M5 6L6 7L5 6M122 6L123 7L122 6M410 6L411 7L410 6M527 6L528 7L527 6M4.33333 7.66669L4.66667 8.33331L4.33333 7.66669M123.333 7.66669L123.667 8.33331L123.333 7.66669M409 7L410 8L409 7M528 7L529 8L528 7M3 9L4 10L3 9M124 9L125 10L124 9M408 9L409 10L408 9M529 9L530 10L529 9M407 11L408 12L407 11M530 11L531 12L530 11M2 12L3 13L2 12M125 12L126 13L125 12z"/>
<path style="fill:#9fc0cb; stroke:none;" d="M407 12L408 13L407 12M530 12L531 13L530 12z"/>
<path style="fill:#e0d6d9; stroke:none;" d="M125 20L126 21L125 20M407 20L408 21L407 20M124 23L125 24L124 23M408 23L409 24L408 23M123.333 24.6667L123.667 25.3333L123.333 24.6667M409 25L410 26L409 25M122 26L123 27L122 26M410 26L411 27L410 26M121 27L122 28L121 27z"/>
<path style="fill:#9fc0cb; stroke:none;" d="M411 27L412 28L411 27z"/>
<path style="fill:#e0d6d9; stroke:none;" d="M120 28L121 29L120 28M412 28L413 29L412 28M118.667 29.3333L119.333 29.6667L118.667 29.3333M413 29L414 30L413 29M117 30L118 31L117 30M415 30L416 31L415 30M114 31L115 32L114 31M417 31L418 32L417 31z"/>
<path style="fill:#9fc0cb; stroke:none;" d="M418 31L419 32L418 31M107 95L108 96L107 95z"/>
<path style="fill:#0c799b; stroke:none;" d="M108 95.6381C93.7005 99.7727 96 115.381 96 127L96 210C96 220.045 93.0254 235.508 99.6381 243.895C107.037 253.279 123.499 250 134 250L205 250C215.437 250 228.946 252.269 239 249.362C253.3 245.227 251 229.619 251 218L251 135C251 124.955 253.975 109.492 247.362 101.105C239.963 91.7209 223.501 95 213 95L142 95C131.563 95 118.054 92.7311 108 95.6381z"/>
<path style="fill:#9fc0cb; stroke:none;" d="M239 95L240 96L239 95z"/>
<path style="fill:#e0d6d9; stroke:none;" d="M292 95L293 96L292 95z"/>
<path style="fill:#9fc0cb; stroke:none;" d="M293 95L294 96L293 95z"/>
<path style="fill:#0c799b; stroke:none;" d="M294 95.5332C279.449 99.0701 282 115.622 282 127L282 210C282 219.497 279.104 234.786 284.703 242.985C291.766 253.326 308.198 250 319 250L392 250C402.39 250 416.038 252.321 426 249.196C439.596 244.932 437 229.097 437 218L437 134C437 124.411 439.95 109.008 433.581 101.044C426.095 91.6828 409.602 95 399 95L328 95C317.336 95 304.383 93.0092 294 95.5332z"/>
<path style="fill:#9fc0cb; stroke:none;" d="M425 95L426 96L425 95z"/>
<path style="fill:#e0d6d9; stroke:none;" d="M104 96L105 97L104 96z"/>
<path style="fill:#9fc0cb; stroke:none;" d="M105 96L106 97L105 96M241 96L242 97L241 96z"/>
<path style="fill:#e0d6d9; stroke:none;" d="M242 96L243 97L242 96M290 96L291 97L290 96M428 96L429 97L428 96M102 97L103 98L102 97z"/>
<path style="fill:#9fc0cb; stroke:none;" d="M103 97L104 98L103 97M243 97L244 98L243 97z"/>
<path style="fill:#e0d6d9; stroke:none;" d="M244 97L245 98L244 97M288 97L289 98L288 97M430 97L431 98L430 97z"/>
<path style="fill:#9fc0cb; stroke:none;" d="M101 98L102 99L101 98M245 98L246 99L245 98z"/>
<path style="fill:#e0d6d9; stroke:none;" d="M287 98L288 99L287 98z"/>
<path style="fill:#9fc0cb; stroke:none;" d="M431 98L432 99L431 98M100 99L101 100L100 99M246 99L247 100L246 99M286 99L287 100L286 99M432 99L433 100L432 99z"/>
<path style="fill:#e0d6d9; stroke:none;" d="M99 100L100 101L99 100M247 100L248 101L247 100z"/>
<path style="fill:#9fc0cb; stroke:none;" d="M285 100L286 101L285 100z"/>
<path style="fill:#e0d6d9; stroke:none;" d="M433 100L434 101L433 100M98 101L99 102L98 101M248 101L249 102L248 101M284 101L285 102L284 101M434 101L435 102L434 101z"/>
<path style="fill:#9fc0cb; stroke:none;" d="M98 102L99 103L98 102M248 102L249 103L248 102z"/>
<path style="fill:#e0d6d9; stroke:none;" d="M97 103L98 104L97 103M249 103L250 104L249 103M283 103L284 104L283 103M435 103L436 104L435 103z"/>
<path style="fill:#9fc0cb; stroke:none;" d="M97 104L98 105L97 104M249 104L250 105L249 104z"/>
<path style="fill:#e0d6d9; stroke:none;" d="M96 105L97 106L96 105M250 105L251 106L250 105M436 105L437 106L436 105z"/>
<path style="fill:#9fc0cb; stroke:none;" d="M96 106L97 107L96 106M250 106L251 107L250 106M282 106L283 107L282 106M436 106L437 107L436 106z"/>
<path style="fill:#e0d6d9; stroke:none;" d="M2 113L3 114L2 113M32 113L33 114L32 113M500 113L501 114L500 113M530 113L531 114L530 113M3 116L4 117L3 116M31 116L32 117L31 116M501 116L502 117L501 116M529 116L530 117L529 116M4.33333 117.667L4.66667 118.333L4.33333 117.667M30.3333 117.667L30.6667 118.333L30.3333 117.667M502 118L503 119L502 118M528 118L529 119L528 118M5 119L6 120L5 119M29 119L30 120L29 119M503 119L504 120L503 119M527 119L528 120L527 119M6 120L7 121L6 120M28 120L29 121L28 120z"/>
<path style="fill:#9fc0cb; stroke:none;" d="M504 120L505 121L504 120M526 120L527 121L526 120z"/>
<path style="fill:#e0d6d9; stroke:none;" d="M7 121L8 122L7 121M27 121L28 122L27 121M505 121L506 122L505 121M525 121L526 122L525 121M8.66667 122.333L9.33333 122.667L8.66667 122.333M25.6667 122.333L26.3333 122.667L25.6667 122.333M506 122L507 123L506 122M524 122L525 123L524 122M10 123L11 124L10 123M24 123L25 124L24 123M508 123L509 124L508 123M522 123L523 124L522 123M13 124L14 125L13 124M21 124L22 125L21 124M510 124L511 125L510 124z"/>
<path style="fill:#9fc0cb; stroke:none;" d="M511 124L512 125L511 124M519 124L520 125L519 124z"/>
<path style="fill:#e0d6d9; stroke:none;" d="M520 124L521 125L520 124z"/>
<path style="fill:#020b0e; stroke:none;" d="M127 126L127 219L220 219L220 126L127 126M313 126L313 219L406 219L406 126L313 126z"/>
<path style="fill:#e0d6d9; stroke:none;" d="M168 157L169 158L168 157z"/>
<path style="fill:#9fc0cb; stroke:none;" d="M169.667 157.333L170.333 157.667L169.667 157.333z"/>
<path style="fill:#0c799b; stroke:none;" d="M171 157.483C151.489 160.78 156.632 190.926 176 187.667C195.623 184.365 190.544 154.181 171 157.483z"/>
<path style="fill:#9fc0cb; stroke:none;" d="M176.667 157.333L177.333 157.667L176.667 157.333z"/>
<path style="fill:#e0d6d9; stroke:none;" d="M178 157L179 158L178 157M354 157L355 158L354 157z"/>
<path style="fill:#9fc0cb; stroke:none;" d="M355 157L356 158L355 157z"/>
<path style="fill:#0c799b; stroke:none;" d="M356 157.534C336.593 162.156 343.813 192.036 363 187.466C382.407 182.844 375.187 152.964 356 157.534z"/>
<path style="fill:#9fc0cb; stroke:none;" d="M363 157L364 158L363 157z"/>
<path style="fill:#e0d6d9; stroke:none;" d="M364 157L365 158L364 157z"/>
<path style="fill:#9fc0cb; stroke:none;" d="M166 158L167 159L166 158M180 158L181 159L180 158M352 158L353 159L352 158M366 158L367 159L366 158z"/>
<path style="fill:#e0d6d9; stroke:none;" d="M164 159L165 160L164 159M182 159L183 160L182 159M350 159L351 160L350 159M368 159L369 160L368 159z"/>
<path style="fill:#9fc0cb; stroke:none;" d="M163 160L164 161L163 160M183 160L184 161L183 160M349 160L350 161L349 160M369 160L370 161L369 160M162 161L163 162L162 161M184 161L185 162L184 161M348 161L349 162L348 161M370 161L371 162L370 161M161 162L162 163L161 162M185 162L186 163L185 162M347 162L348 163L347 162M371 162L372 163L371 162z"/>
<path style="fill:#e0d6d9; stroke:none;" d="M160 163L161 164L160 163M186 163L187 164L186 163M346 163L347 164L346 163M372 163L373 164L372 163z"/>
<path style="fill:#9fc0cb; stroke:none;" d="M159 165L160 166L159 165M187 165L188 166L187 165M345 165L346 166L345 165M373 165L374 166L373 165z"/>
<path style="fill:#e0d6d9; stroke:none;" d="M158 167L159 168L158 167M188 167L189 168L188 167M344 167L345 168L344 167M374 167L375 168L374 167z"/>
<path style="fill:#9fc0cb; stroke:none;" d="M158.333 168.667L158.667 169.333L158.333 168.667M188 168L189 169L188 168M344 168L345 169L344 168M374 168L375 169L374 168M158.333 175.667L158.667 176.333L158.333 175.667M188 176L189 177L188 176M344 176L345 177L344 176M374 176L375 177L374 176z"/>
<path style="fill:#e0d6d9; stroke:none;" d="M158 177L159 178L158 177M188 177L189 178L188 177M344 177L345 178L344 177M374 177L375 178L374 177z"/>
<path style="fill:#9fc0cb; stroke:none;" d="M159 179L160 180L159 179M187 179L188 180L187 179M345 179L346 180L345 179M373 179L374 180L373 179z"/>
<path style="fill:#e0d6d9; stroke:none;" d="M160 181L161 182L160 181M186 181L187 182L186 181M346 181L347 182L346 181M372 181L373 182L372 181z"/>
<path style="fill:#9fc0cb; stroke:none;" d="M161 182L162 183L161 182M185 182L186 183L185 182M347 182L348 183L347 182M371 182L372 183L371 182M162 183L163 184L162 183M184 183L185 184L184 183M348 183L349 184L348 183M370 183L371 184L370 183M163 184L164 185L163 184M183 184L184 185L183 184M349 184L350 185L349 184M369 184L370 185L369 184z"/>
<path style="fill:#e0d6d9; stroke:none;" d="M164 185L165 186L164 185M182 185L183 186L182 185M350 185L351 186L350 185M368 185L369 186L368 185z"/>
<path style="fill:#9fc0cb; stroke:none;" d="M166 186L167 187L166 186M180 186L181 187L180 186M352 186L353 187L352 186M366 186L367 187L366 186z"/>
<path style="fill:#e0d6d9; stroke:none;" d="M168 187L169 188L168 187z"/>
<path style="fill:#9fc0cb; stroke:none;" d="M169 187L170 188L169 187M177 187L178 188L177 187z"/>
<path style="fill:#e0d6d9; stroke:none;" d="M178 187L179 188L178 187M354 187L355 188L354 187z"/>
<path style="fill:#9fc0cb; stroke:none;" d="M355 187L356 188L355 187M363 187L364 188L363 187z"/>
<path style="fill:#e0d6d9; stroke:none;" d="M364 187L365 188L364 187z"/>
<path style="fill:#9fc0cb; stroke:none;" d="M96 238L97 239L96 238M250 238L251 239L250 238M282 238L283 239L282 238M436 238L437 239L436 238z"/>
<path style="fill:#e0d6d9; stroke:none;" d="M436 239L437 240L436 239z"/>
<path style="fill:#9fc0cb; stroke:none;" d="M97 240L98 241L97 240M249 240L250 241L249 240z"/>
<path style="fill:#e0d6d9; stroke:none;" d="M97 241L98 242L97 241M249 241L250 242L249 241M283 241L284 242L283 241M435 241L436 242L435 241z"/>
<path style="fill:#9fc0cb; stroke:none;" d="M98 242L99 243L98 242M248 242L249 243L248 242z"/>
<path style="fill:#e0d6d9; stroke:none;" d="M98 243L99 244L98 243M248 243L249 244L248 243M284 243L285 244L284 243M434 243L435 244L434 243z"/>
<path style="fill:#9fc0cb; stroke:none;" d="M99 244L100 245L99 244M247 244L248 245L247 244M285 244L286 245L285 244z"/>
<path style="fill:#e0d6d9; stroke:none;" d="M433 244L434 245L433 244z"/>
<path style="fill:#9fc0cb; stroke:none;" d="M100 245L101 246L100 245M246 245L247 246L246 245M286 245L287 246L286 245M432 245L433 246L432 245z"/>
<path style="fill:#e0d6d9; stroke:none;" d="M101 246L102 247L101 246M245 246L246 247L245 246M287 246L288 247L287 246z"/>
<path style="fill:#9fc0cb; stroke:none;" d="M431 246L432 247L431 246z"/>
<path style="fill:#e0d6d9; stroke:none;" d="M102 247L103 248L102 247z"/>
<path style="fill:#9fc0cb; stroke:none;" d="M103 247L104 248L103 247M243 247L244 248L243 247z"/>
<path style="fill:#e0d6d9; stroke:none;" d="M244 247L245 248L244 247M288 247L289 248L288 247M430 247L431 248L430 247M104 248L105 249L104 248z"/>
<path style="fill:#9fc0cb; stroke:none;" d="M105 248L106 249L105 248M241 248L242 249L241 248z"/>
<path style="fill:#e0d6d9; stroke:none;" d="M242 248L243 249L242 248M290 248L291 249L290 248M428 248L429 249L428 248M106 249L107 250L106 249z"/>
<path style="fill:#9fc0cb; stroke:none;" d="M107 249L108 250L107 249M239 249L240 250L239 249z"/>
<path style="fill:#e0d6d9; stroke:none;" d="M240 249L241 250L240 249M292 249L293 250L292 249z"/>
<path style="fill:#9fc0cb; stroke:none;" d="M293 249L294 250L293 249M425 249L426 250L425 249M107 281L108 282L107 281z"/>
<path style="fill:#0c799b; stroke:none;" d="M108 281.638C93.7005 285.773 96 301.381 96 313L96 396C96 406.045 93.0254 421.508 99.6381 429.895C107.037 439.279 123.499 436 134 436L205 436C215.437 436 228.946 438.269 239 435.362C253.3 431.227 251 415.619 251 404L251 321C251 310.955 253.975 295.492 247.362 287.105C239.963 277.721 223.501 281 213 281L142 281C131.563 281 118.054 278.731 108 281.638z"/>
<path style="fill:#9fc0cb; stroke:none;" d="M239 281L240 282L239 281z"/>
<path style="fill:#e0d6d9; stroke:none;" d="M292 281L293 282L292 281z"/>
<path style="fill:#9fc0cb; stroke:none;" d="M293 281L294 282L293 281z"/>
<path style="fill:#0c799b; stroke:none;" d="M406 312C406 320.306 405.634 328.704 406.04 337C406.695 350.36 423.508 359.543 433.2 347.787C441.246 338.027 437 315.945 437 304C437 298.978 437.521 293.532 434.91 289.004C428.501 277.885 412.783 281 402 281L325 281C315.102 281 300.085 278.215 291.001 282.573C279.825 287.934 279.309 303.745 290.004 309.91C298.096 314.576 311.95 312 321 312L354 312L406 312z"/>
<path style="fill:#9fc0cb; stroke:none;" d="M425 281L426 282L425 281z"/>
<path style="fill:#e0d6d9; stroke:none;" d="M104 282L105 283L104 282z"/>
<path style="fill:#9fc0cb; stroke:none;" d="M105 282L106 283L105 282M241 282L242 283L241 282z"/>
<path style="fill:#e0d6d9; stroke:none;" d="M242 282L243 283L242 282M290 282L291 283L290 282M428 282L429 283L428 282M102 283L103 284L102 283z"/>
<path style="fill:#9fc0cb; stroke:none;" d="M103 283L104 284L103 283M243 283L244 284L243 283z"/>
<path style="fill:#e0d6d9; stroke:none;" d="M244 283L245 284L244 283M288 283L289 284L288 283M430 283L431 284L430 283z"/>
<path style="fill:#9fc0cb; stroke:none;" d="M101 284L102 285L101 284M245 284L246 285L245 284z"/>
<path style="fill:#e0d6d9; stroke:none;" d="M287 284L288 285L287 284z"/>
<path style="fill:#9fc0cb; stroke:none;" d="M431 284L432 285L431 284M100 285L101 286L100 285M246 285L247 286L246 285M286 285L287 286L286 285M432 285L433 286L432 285z"/>
<path style="fill:#e0d6d9; stroke:none;" d="M99 286L100 287L99 286M247 286L248 287L247 286z"/>
<path style="fill:#9fc0cb; stroke:none;" d="M285 286L286 287L285 286z"/>
<path style="fill:#e0d6d9; stroke:none;" d="M433 286L434 287L433 286M98 287L99 288L98 287M248 287L249 288L248 287M284 287L285 288L284 287M434 287L435 288L434 287z"/>
<path style="fill:#9fc0cb; stroke:none;" d="M98 288L99 289L98 288M248 288L249 289L248 288z"/>
<path style="fill:#e0d6d9; stroke:none;" d="M97 289L98 290L97 289M249 289L250 290L249 289M283 289L284 290L283 289M435 289L436 290L435 289z"/>
<path style="fill:#9fc0cb; stroke:none;" d="M97 290L98 291L97 290M249 290L250 291L249 290z"/>
<path style="fill:#e0d6d9; stroke:none;" d="M96 291L97 292L96 291M250 291L251 292L250 291M282 291L283 292L282 291M436 291L437 292L436 291z"/>
<path style="fill:#9fc0cb; stroke:none;" d="M96 292L97 293L96 292M250 292L251 293L250 292M282 292L283 293L282 292M436 292L437 293L436 292M282 300L283 301L282 300z"/>
<path style="fill:#e0d6d9; stroke:none;" d="M283 303L284 304L283 303M284 305L285 306L284 305z"/>
<path style="fill:#9fc0cb; stroke:none;" d="M285 306L286 307L285 306M286 307L287 308L286 307z"/>
<path style="fill:#e0d6d9; stroke:none;" d="M287 308L288 309L287 308M288 309L289 310L288 309M290 310L291 311L290 310M292 311L293 312L292 311z"/>
<path style="fill:#9fc0cb; stroke:none;" d="M293 311L294 312L293 311z"/>
<path style="fill:#020b0e; stroke:none;" d="M127 312L127 405L220 405L220 312L127 312z"/>
<path style="fill:#9fc0cb; stroke:none;" d="M406 341L407 342L406 341M436 341L437 342L436 341z"/>
<path style="fill:#e0d6d9; stroke:none;" d="M406 342L407 343L406 342M436 342L437 343L436 342M168 343L169 344L168 343z"/>
<path style="fill:#9fc0cb; stroke:none;" d="M169 343L170 344L169 343z"/>
<path style="fill:#0c799b; stroke:none;" d="M170 343.534C150.673 348.137 157.787 377.752 177 373.312C196.463 368.814 189.13 338.978 170 343.534z"/>
<path style="fill:#9fc0cb; stroke:none;" d="M177 343L178 344L177 343z"/>
<path style="fill:#e0d6d9; stroke:none;" d="M178 343L179 344L178 343M292 343L293 344L292 343z"/>
<path style="fill:#9fc0cb; stroke:none;" d="M293 343L294 344L293 343z"/>
<path style="fill:#0c799b; stroke:none;" d="M294 343.533C287.991 344.994 283.424 349.936 282.329 356C279.381 372.33 282 391.4 282 408C282 414.747 280.683 423.099 284.703 428.985C289.374 435.824 296.526 436 304 436C321.879 436.001 346.941 440.547 364 435.196C369.545 433.457 373.643 428.692 374.671 423C377.675 406.359 375 386.916 375 370C375 363.059 376.225 354.851 371.581 349.044C366.308 342.45 358.613 343 351 343C333.347 343 311.147 339.365 294 343.533z"/>
<path style="fill:#9fc0cb; stroke:none;" d="M363 343L364 344L363 343M166 344L167 345L166 344M180 344L181 345L180 344M290 344L291 345L290 344M366 344L367 345L366 344M407 344L408 345L407 344M435 344L436 345L435 344z"/>
<path style="fill:#e0d6d9; stroke:none;" d="M164 345L165 346L164 345M182 345L183 346L182 345z"/>
<path style="fill:#9fc0cb; stroke:none;" d="M288 345L289 346L288 345M368 345L369 346L368 345M163 346L164 347L163 346M183 346L184 347L183 346M287 346L288 347L287 346M369 346L370 347L369 346M408 346L409 347L408 346M434 346L435 347L434 346M162 347L163 348L162 347M184 347L185 348L184 347M286 347L287 348L286 347M370 347L371 348L370 347M433 347L434 348L433 347M161 348L162 349L161 348M185 348L186 349L185 348M285 348L286 349L285 348z"/>
<path style="fill:#e0d6d9; stroke:none;" d="M371 348L372 349L371 348M160 349L161 350L160 349M186 349L187 350L186 349M284 349L285 350L284 349M372 349L373 350L372 349z"/>
<path style="fill:#9fc0cb; stroke:none;" d="M411 349L412 350L411 349M412 350L413 351L412 350M430 350L431 351L430 350M159 351L160 352L159 351M187 351L188 352L187 351z"/>
<path style="fill:#e0d6d9; stroke:none;" d="M283 351L284 352L283 351M373 351L374 352L373 351M413 351L414 352L413 351z"/>
<path style="fill:#9fc0cb; stroke:none;" d="M414 351L415 352L414 351M428 351L429 352L428 351z"/>
<path style="fill:#e0d6d9; stroke:none;" d="M429 351L430 352L429 351z"/>
<path style="fill:#9fc0cb; stroke:none;" d="M416 352L417 353L416 352M426 352L427 353L426 352z"/>
<path style="fill:#e0d6d9; stroke:none;" d="M158 353L159 354L158 353M188 353L189 354L188 353M282 353L283 354L282 353M374 353L375 354L374 353M420 353L420 354L423 354L420 353z"/>
<path style="fill:#9fc0cb; stroke:none;" d="M158 354L159 355L158 354M188 354L189 355L188 354M282 354L283 355L282 354M374 354L375 355L374 354M158.333 361.667L158.667 362.333L158.333 361.667M188 362L189 363L188 362z"/>
<path style="fill:#e0d6d9; stroke:none;" d="M158 363L159 364L158 363M188 363L189 364L188 363z"/>
<path style="fill:#9fc0cb; stroke:none;" d="M159 365L160 366L159 365M187 365L188 366L187 365z"/>
<path style="fill:#e0d6d9; stroke:none;" d="M160 367L161 368L160 367M186 367L187 368L186 367z"/>
<path style="fill:#9fc0cb; stroke:none;" d="M161 368L162 369L161 368M185 368L186 369L185 368M162 369L163 370L162 369M184 369L185 370L184 369M163 370L164 371L163 370M183 370L184 371L183 370z"/>
<path style="fill:#e0d6d9; stroke:none;" d="M164 371L165 372L164 371M182 371L183 372L182 371z"/>
<path style="fill:#9fc0cb; stroke:none;" d="M166 372L167 373L166 372M180 372L181 373L180 372z"/>
<path style="fill:#e0d6d9; stroke:none;" d="M168 373L169 374L168 373z"/>
<path style="fill:#9fc0cb; stroke:none;" d="M169.667 373.333L170.333 373.667L169.667 373.333M176.667 373.333L177.333 373.667L176.667 373.333z"/>
<path style="fill:#e0d6d9; stroke:none;" d="M178 373L179 374L178 373z"/>
<path style="fill:#020b0e; stroke:none;" d="M313 374L313 405L344 405L344 374L313 374z"/>
<path style="fill:#e0d6d9; stroke:none;" d="M417 384L418 385L417 384z"/>
<path style="fill:#9fc0cb; stroke:none;" d="M418.667 384.333L419.333 384.667L418.667 384.333z"/>
<path style="fill:#0c799b; stroke:none;" d="M420 384.558C398.466 387.042 399.499 438.159 423 435.8C444.379 433.654 443.643 381.831 420 384.558z"/>
<path style="fill:#9fc0cb; stroke:none;" d="M423.667 384.333L424.333 384.667L423.667 384.333z"/>
<path style="fill:#e0d6d9; stroke:none;" d="M425 384L426 385L425 384z"/>
<path style="fill:#9fc0cb; stroke:none;" d="M415 385L416 386L415 385M427 385L428 386L427 385M413 386L414 387L413 386M429 386L430 387L429 386z"/>
<path style="fill:#e0d6d9; stroke:none;" d="M411 387L412 388L411 387M410 388L411 389L410 388M432 388L433 389L432 388M409 389L410 390L409 389M433 389L434 390L433 389z"/>
<path style="fill:#9fc0cb; stroke:none;" d="M434 391L435 392L434 391z"/>
<path style="fill:#e0d6d9; stroke:none;" d="M407 392L408 393L407 392M435 392L436 393L435 392M406 394L407 395L406 394z"/>
<path style="fill:#9fc0cb; stroke:none;" d="M406 395L407 396L406 395M436 395L437 396L436 395z"/>
<path style="fill:#e0d6d9; stroke:none;" d="M13 406L14 407L13 406z"/>
<path style="fill:#e82156; stroke:none;" d="M33 499L33 459L33 435C33 428.319 34.3468 419.997 30.7716 414.015C24.6532 403.777 10.3468 403.777 4.22839 414.015C0.0175462 421.061 2 432.1 2 440L2 500C2 508.645 0.180715 519.134 7.18827 525.66C13.9001 531.91 24.5787 530 33 530L92 530C99.9003 530 110.939 531.982 117.985 527.772C128.223 521.653 128.223 507.347 117.985 501.228C112.003 497.653 103.681 499 97 499L73 499L33 499z"/>
<path style="fill:#e0d6d9; stroke:none;" d="M21 406L22 407L21 406M510 406L511 407L510 406z"/>
<path style="fill:#9fc0cb; stroke:none;" d="M511 406L512 407L511 406z"/>
<path style="fill:#e82156; stroke:none;" d="M500 499L460 499L436 499C429.379 499 420.977 497.646 415.004 501.09C404.702 507.029 404.702 521.971 415.004 527.911C422.063 531.98 433.144 530 441 530L500 530C508.331 530 519.244 531.951 525.892 525.775C532.865 519.298 531 508.588 531 500L531 440C531 432.144 532.98 421.063 528.911 414.004C522.971 403.702 508.029 403.702 502.09 414.004C498.646 419.977 500 428.379 500 435L500 459L500 499z"/>
<path style="fill:#e0d6d9; stroke:none;" d="M519 406L520 407L519 406M10 407L11 408L10 407M24 407L25 408L24 407M508 407L509 408L508 407M522 407L523 408L522 407M8.66667 408.333L9.33333 408.667L8.66667 408.333M25.6667 408.333L26.3333 408.667L25.6667 408.333M506 408L507 409L506 408M524 408L525 409L524 408M7 409L8 410L7 409M27 409L28 410L27 409M505 409L506 410L505 409M525 409L526 410L525 409M6 410L7 411L6 410M28 410L29 411L28 410z"/>
<path style="fill:#9fc0cb; stroke:none;" d="M504 410L505 411L504 410M526 410L527 411L526 410z"/>
<path style="fill:#e0d6d9; stroke:none;" d="M5 411L6 412L5 411M29 411L30 412L29 411M503 411L504 412L503 411M527 411L528 412L527 411M4.33333 412.667L4.66667 413.333L4.33333 412.667M30.3333 412.667L30.6667 413.333L30.3333 412.667M502 412L503 413L502 412M528 412L529 413L528 412M3 414L4 415L3 414M31 414L32 415L31 414M501 414L502 415L501 414M529 414L530 415L529 414M500 416L501 417L500 416M530 416L531 417L530 416M2 417L3 418L2 417M32 417L33 418L32 417z"/>
<path style="fill:#9fc0cb; stroke:none;" d="M500 417L501 418L500 417M530 417L531 418L530 417M96 424L97 425L96 424M250 424L251 425L250 424M282 424L283 425L282 424M374 424L375 425L374 424M406 424L407 425L406 424M436 424L437 425L436 424z"/>
<path style="fill:#e0d6d9; stroke:none;" d="M374 425L375 426L374 425M406 425L407 426L406 425M436 425L437 426L436 425z"/>
<path style="fill:#9fc0cb; stroke:none;" d="M97 426L98 427L97 426M249 426L250 427L249 426z"/>
<path style="fill:#e0d6d9; stroke:none;" d="M97 427L98 428L97 427M249 427L250 428L249 427M283 427L284 428L283 427M373 427L374 428L373 427z"/>
<path style="fill:#9fc0cb; stroke:none;" d="M407 427L408 428L407 427M435 427L436 428L435 427M98 428L99 429L98 428M248 428L249 429L248 428z"/>
<path style="fill:#e0d6d9; stroke:none;" d="M98 429L99 430L98 429M248 429L249 430L248 429M284 429L285 430L284 429M372 429L373 430L372 429M408 429L409 430L408 429M434 429L435 430L434 429z"/>
<path style="fill:#9fc0cb; stroke:none;" d="M99 430L100 431L99 430M247 430L248 431L247 430M285 430L286 431L285 430z"/>
<path style="fill:#e0d6d9; stroke:none;" d="M371 430L372 431L371 430z"/>
<path style="fill:#9fc0cb; stroke:none;" d="M409 430L410 431L409 430M433 430L434 431L433 430M100 431L101 432L100 431M246 431L247 432L246 431M286 431L287 432L286 431M370 431L371 432L370 431M410 431L411 432L410 431M432 431L433 432L432 431z"/>
<path style="fill:#e0d6d9; stroke:none;" d="M101 432L102 433L101 432M245 432L246 433L245 432M287 432L288 433L287 432z"/>
<path style="fill:#9fc0cb; stroke:none;" d="M369 432L370 433L369 432M411 432L412 433L411 432M431 432L432 433L431 432z"/>
<path style="fill:#e0d6d9; stroke:none;" d="M102 433L103 434L102 433z"/>
<path style="fill:#9fc0cb; stroke:none;" d="M103 433L104 434L103 433M243 433L244 434L243 433z"/>
<path style="fill:#e0d6d9; stroke:none;" d="M244 433L245 434L244 433M288 433L289 434L288 433M368 433L369 434L368 433M412 433L413 434L412 433M430 433L431 434L430 433M104 434L105 435L104 434z"/>
<path style="fill:#9fc0cb; stroke:none;" d="M105 434L106 435L105 434M241 434L242 435L241 434z"/>
<path style="fill:#e0d6d9; stroke:none;" d="M242 434L243 435L242 434M290 434L291 435L290 434M366 434L367 435L366 434z"/>
<path style="fill:#9fc0cb; stroke:none;" d="M414 434L415 435L414 434M428 434L429 435L428 434z"/>
<path style="fill:#e0d6d9; stroke:none;" d="M106 435L107 436L106 435z"/>
<path style="fill:#9fc0cb; stroke:none;" d="M107 435L108 436L107 435M239 435L240 436L239 435z"/>
<path style="fill:#e0d6d9; stroke:none;" d="M240 435L241 436L240 435M292 435L293 436L292 435z"/>
<path style="fill:#9fc0cb; stroke:none;" d="M293 435L294 436L293 435M363 435L364 436L363 435z"/>
<path style="fill:#e0d6d9; stroke:none;" d="M416 435L417 436L416 435z"/>
<path style="fill:#9fc0cb; stroke:none;" d="M417 435L418 436L417 435M425 435L426 436L425 435z"/>
<path style="fill:#e0d6d9; stroke:none;" d="M426 435L427 436L426 435M114 499L115 500L114 499M417 499L418 500L417 499z"/>
<path style="fill:#9fc0cb; stroke:none;" d="M418 499L419 500L418 499z"/>
<path style="fill:#e0d6d9; stroke:none;" d="M117 500L118 501L117 500M415 500L416 501L415 500M118.667 501.333L119.333 501.667L118.667 501.333M413 501L414 502L413 501M120 502L121 503L120 502M412 502L413 503L412 502M121 503L122 504L121 503z"/>
<path style="fill:#9fc0cb; stroke:none;" d="M411 503L412 504L411 503z"/>
<path style="fill:#e0d6d9; stroke:none;" d="M122 504L123 505L122 504M410 504L411 505L410 504M123.333 505.667L123.667 506.333L123.333 505.667M409 505L410 506L409 505M124 507L125 508L124 507M408 507L409 508L408 507M407 509L408 510L407 509M125 510L126 511L125 510z"/>
<path style="fill:#9fc0cb; stroke:none;" d="M407 510L408 511L407 510z"/>
<path style="fill:#e0d6d9; stroke:none;" d="M2 518L3 519L2 518M125 518L126 519L125 518M407 518L408 519L407 518M530 518L531 519L530 518M3 521L4 522L3 521M124 521L125 522L124 521M408 521L409 522L408 521M529 521L530 522L529 521M4.33333 522.667L4.66667 523.333L4.33333 522.667M123.333 522.667L123.667 523.333L123.333 522.667M409 523L410 524L409 523M528 523L529 524L528 523M5 524L6 525L5 524M122 524L123 525L122 524M410 524L411 525L410 524M527 524L528 525L527 524M6 525L7 526L6 525M121 525L122 526L121 525z"/>
<path style="fill:#9fc0cb; stroke:none;" d="M411 525L412 526L411 525M526 525L527 526L526 525z"/>
<path style="fill:#e0d6d9; stroke:none;" d="M7 526L8 527L7 526M120 526L121 527L120 526M412 526L413 527L412 526M525 526L526 527L525 526M8.66667 527.333L9.33333 527.667L8.66667 527.333M118.667 527.333L119.333 527.667L118.667 527.333M413 527L414 528L413 527M524 527L525 528L524 527M10 528L11 529L10 528M117 528L118 529L117 528M415 528L416 529L415 528M522 528L523 529L522 528M13 529L14 530L13 529M114 529L115 530L114 529M417 529L418 530L417 529z"/>
<path style="fill:#9fc0cb; stroke:none;" d="M418 529L419 530L418 529M519 529L520 530L519 529z"/>
<path style="fill:#e0d6d9; stroke:none;" d="M520 529L521 530L520 529z"/>
</svg>
