<?xml version="1.0" standalone="yes"?>
<svg xmlns="http://www.w3.org/2000/svg" width="504" height="237">
<path style="fill:#ffffff; stroke:none;" d="M0 0L0 104L1 104C1 73.744 23.8853 46.0169 56 47.0432C62.6935 47.2571 69.8124 48.9328 76 51.4537C79.3661 52.8251 83.2211 56.1587 87 55.767C92.7174 55.1744 98.265 50.3017 104 48.8997C120.71 44.8146 138.585 48.5655 152 59.4676C173.054 76.5774 172 98.3511 172 123L172 191L134 191L134 109C134 99.0287 133.47 85.3047 120 85.348C106.569 85.3912 106 99.0578 106 109L106 191L67 191L67 109C67 99.0578 66.4311 85.3912 53 85.348C39.4108 85.3043 39 98.9456 39 109L39 191L0 191L0 237L504 237L504 65L503 65L499 77L498 77C506.465 39.969 462.046 24.8397 433 18.4244C379.649 6.64075 321.402 8.11873 268 19.0039C248.515 22.9756 230.183 30.4541 211 35L211 34C224.888 30.0297 238.129 23.3361 252 19.0255C285.365 8.65692 321.978 1 357 1L325 0L252 0L0 0z"/>
<path style="fill:#29a9e1; stroke:none;" d="M211 34L211 35C231.048 31.9973 250.772 22.4259 271 18.6111C323.376 8.73325 378.698 7.07236 431 18.2106C454.452 23.2051 493.702 34.743 499.482 62C500.592 67.2309 498.751 71.8943 498 77C503.097 71.7461 503.991 64.0361 504 57C504.039 24.8898 466.371 11.4647 440 6.00308C363.708 -9.79782 282.221 4.78053 211 34z"/>
<path style="fill:#ffffff; stroke:none;" d="M397 0L397 1C423.732 1 454.682 6.3614 478 20.0116C489.106 26.513 499.322 35.2313 503 48L504 48L504 0L397 0z"/>
<path style="fill:#354b5f; stroke:none;" d="M0 191L39 191L39 109C39 99.4615 40.0376 85.5133 53 85.6049C65.8049 85.6955 67 99.5027 67 109L67 191L106 191L106 109C106 99.5027 107.195 85.6955 120 85.6049C132.836 85.5141 134 99.5425 134 109L134 191L172 191L172 117C172 101.712 173.357 86.5679 164.934 73C152.187 52.465 128.128 44.0155 105 48.4606C98.8728 49.6383 92.355 55.3303 86.4244 55.4861C80.4865 55.6421 72.3193 49.4481 66 48.2608C43.8909 44.1068 21.1123 52.8254 8.69907 72C-0.160779 85.6858 0 103.245 0 119L0 191z"/>
<path style="fill:#29a9e1; stroke:none;" d="M203 47.6528C178.605 55.3017 193.021 93.0176 217 84.7508C240.923 76.5034 227.212 40.0612 203 47.6528z"/>
<path style="fill:#354b5f; stroke:none;" d="M373 191L411 191L411 152L444 152L444 191L482 191L482 121C482 107.456 483.509 92.7952 478.124 80C461.174 39.7224 401.535 35.561 379.876 74C371.902 88.1514 373 104.361 373 120L373 191M248 50L248 191L287 191L287 85C294.19 85 302.809 84.0215 308.985 88.5131C327.182 101.749 305.232 113.999 292 114L292 143C296.929 143 302.421 142.376 306.999 144.573C321.961 151.749 317 177.552 317 191L355 191C355 176.249 357.356 159.233 352.96 145C350.945 138.476 343.763 133.771 342.192 127.83C341.15 123.891 348.422 117.535 350.19 114C353.958 106.465 354.788 97.2916 353.711 89C347.27 39.4369 283.534 50 248 50z"/>
<path style="fill:#ffffff; stroke:none;" d="M411 120L444 120C444 111.401 445.551 100.908 441.316 93.0401C435.536 82.3031 420.043 83.0853 414.008 93.0039C409.378 100.615 411 111.499 411 120z"/>
<path style="fill:#3b7393; stroke:none;" d="M192 88L193 89L192 88z"/>
<path style="fill:#3b6d8b; stroke:none;" d="M193.603 89.0278C188.963 92.7032 192 112.339 192 118L192 170C192 174.705 189.99 185.561 193.028 189.397C195.746 192.829 206.062 191 210 191C214.125 191 223 192.662 226.397 189.972C231.037 186.297 228 166.661 228 161L228 109C228 104.295 230.01 93.4387 226.972 89.6034C224.254 86.1709 213.938 88 210 88C205.875 88 197 86.3377 193.603 89.0278z"/>
<path style="fill:#3b7393; stroke:none;" d="M227 88L228 89L227 88z"/>
<path style="fill:#354b5f; stroke:none;" d="M193 89L193 190L227 190L227 89L193 89z"/>
<path style="fill:#3b7393; stroke:none;" d="M192 190L193 191L192 190M227 190L228 191L227 190z"/>
<path style="fill:#354b5f; stroke:none;" d="M4 205L3 228L6 228L7 212L8 212L12 228C18.6228 226.854 20.1445 216.793 21 211L22 211C22 216.389 19.8235 225.95 26 228L25 205C17.4054 205.605 15.5677 215.497 15 222C12.2781 215.86 11.9358 205.632 4 205M30 205L30 209L34 205L30 205M131 205L131 228L134 228L134 219L146 228L142 218C149.666 207.341 140.015 205 131 205M219 228L223 228C226.433 215.005 231.674 226.905 238 228L231 205C222.639 205.666 220.049 220.897 219 228M334 205L334 209L338 205L334 205M386 224L385 225L385 227C386.74 227.514 388.193 227.903 390.025 227.961C412.65 228.679 380.019 205.248 398 209L398 205C396.024 205.001 393.977 204.877 392.011 205.109C374.147 207.211 406.798 227.616 386 224M102 207L98 212L98 215L101 215C101 221.737 99.7043 227.728 108 228L104 215L109 215L109 212L104 212L104 207L102 207M187 207L183 212L183 215L186 215C186 221.737 184.704 227.728 193 228L189 215L194 215L194 212L189 212L189 207L187 207M325 207L321 212L321 215L324 215C324 221.737 322.704 227.728 331 228L327 215L332 215L332 212L327 212L327 207L325 207M432 207L428 212L428 215L431 215C431 221.737 429.704 227.728 438 228L434 215L439 215L439 212L434 212L434 207L432 207z"/>
<path style="fill:#ffffff; stroke:none;" d="M134 208L134 216C142.138 215.085 142.542 208.28 134 208M228 210L226 218L231 218L228 210z"/>
<path style="fill:#354b5f; stroke:none;" d="M30 212L30 228L33 228L33 212L30 212M38 212L38 228L41 228C41.0091 214.284 48.9909 214.284 49 228L52 228C52 214.813 51.1155 212.713 38 212M68 228L68 225C63.3075 224.848 60.9891 223.627 58 220L69 220C67.9014 200.114 44.361 222.978 60.044 227.566C62.5413 228.297 65.4278 227.998 68 228M73 212L73 228L76 228L81 212L73 212M95 228L95 225C90.3075 224.848 87.9891 223.627 85 220L96 220C94.9014 200.114 71.361 222.978 87.044 227.566C89.5413 228.297 92.4278 227.998 95 228M118 224L111 224L110 227C123.443 230.963 119.505 221.524 114 215L121 214C117.748 211.54 109.672 211.697 111.662 217.876C112.525 220.555 115.933 222.338 118 224M152.109 212.742C142.743 216.753 149.995 231.495 159.891 227.258C169.257 223.247 162.005 208.505 152.109 212.742M167 212C167 225.102 167.785 227.373 181 228L181 212L178 212C177.991 225.716 170.009 225.716 170 212L167 212M208 228L208 225C203.308 224.848 200.989 223.627 198 220L209 220C207.901 200.114 184.361 222.978 200.044 227.566C202.541 228.297 205.428 227.998 208 228M251 228L251 225C240.639 224.664 240.639 215.336 251 215L251 212C234.775 212.013 234.583 227.989 251 228M266 228L266 225C255.639 224.664 255.639 215.336 266 215L266 212C249.775 212.013 249.583 227.989 266 228M272.109 212.742C262.743 216.753 269.996 231.495 279.891 227.258C289.257 223.247 282.004 208.505 272.109 212.742M287 212C287 225.102 287.785 227.373 301 228L301 212L298 212C297.991 225.716 290.009 225.716 290 212L287 212M305 212L305 228L308 228C308.009 214.284 315.991 214.284 316 228L319 228C319 214.813 318.116 212.713 305 212M334 212L334 228L337 228L337 212L334 212M342 212L342 228L345 228C345.009 214.284 352.991 214.284 353 228L356 228C356 214.813 355.116 212.713 342 212M371 227C368.506 231.444 365.847 232.098 361 231L360 234C376.271 238.81 374 223.16 374 212C369.883 212.212 363.742 210.907 360.742 214.434C353.967 222.399 363.33 229.261 371 227M400 212L404.653 227.561L401 236C409.85 232.964 413.531 220.537 415 212L411 212L408 223C405.968 218.416 405.572 212.964 400 212M424 224L417 224L416 227C429.443 230.963 425.505 221.524 420 215L427 214C423.748 211.54 415.672 211.697 417.662 217.876C418.525 220.555 421.933 222.338 424 224M453 228L453 225C448.308 224.848 445.989 223.627 443 220L454 220C452.901 200.114 429.361 222.978 445.044 227.566C447.541 228.297 450.428 227.998 453 228M458 212L458 228L461 228C461.009 214.462 467.999 214.315 468 228L471 228C471.001 214.8 477.991 214.818 478 228L481 228C481 221.915 481.272 206.23 471 214L458 212z"/>
<path style="fill:#ffffff; stroke:none;" d="M59 218L66 218C63.8467 214.42 61.1533 214.42 59 218M86 218L93 218C90.8467 214.42 88.1533 214.42 86 218M199 218L206 218C203.847 214.42 201.153 214.42 199 218M444 218L451 218C448.847 214.42 446.153 214.42 444 218M154.228 216.047C149.68 218.687 152.889 226.461 157.772 223.914C162.596 221.397 159.426 213.029 154.228 216.047M274.228 216.047C269.68 218.687 272.889 226.461 277.772 223.914C282.596 221.397 279.426 213.029 274.228 216.047M364.514 216.047C360.474 218.786 363.795 227.05 368.57 223.953C372.863 221.168 369.192 212.875 364.514 216.047z"/>
</svg>
